<?xml version="1.0" encoding="UTF-8"?>
<svg id="Capa_2" data-name="Capa 2" xmlns="http://www.w3.org/2000/svg" viewBox="0 0 144.47 142.05">
  <defs>
    <style>
      :root {
        --primary: #f7b176;
      }
      .cls-1 {
        fill: var(--primary);
      }

      .cls-1, .cls-2 {
        stroke: var(--primary);
        stroke-miterlimit: 10;
      }

      .cls-2, .cls-3 {
        fill: var(--primary);
      }
    </style>
  </defs>
  <g id="Capa_1-2" data-name="Capa 1">
    <path class="cls-3" d="m144.47,71.49c.26,39.23-31.87,70.82-71.77,70.56-2.49-.02-4.96-.16-7.39-.41,20.34-.27,39.7-12.74,48.09-33.12,11.14-27.06-1.29-57.84-27.76-68.73-26.47-10.89-56.95,2.22-68.09,29.29-8.78,21.34-2.92,44.97,12.92,59.36C12.16,115.43.16,94.32,0,70.56-.26,31.33,31.88-.26,71.77,0c39.9.26,72.45,32.26,72.7,71.49Z"/>
    <path class="cls-2" d="m101.94,88.55c.03,3.87-.57,7.59-1.7,11.07-4.56,14.11-17.81,24.23-33.5,24.13-19.57-.12-35.54-16.09-35.67-35.66-.05-8.26,2.73-15.84,7.43-21.84h.01c6.43-8.21,16.47-13.44,27.77-13.36,19.57.13,35.53,16.1,35.66,35.66Z"/>
    <path class="cls-1" d="m101.94,88.55c.03,3.87-.57,7.59-1.7,11.07-6.43,8.21-16.47,13.44-27.77,13.36-19.57-.13-35.54-16.1-35.67-35.66-.02-3.87.57-7.59,1.7-11.07h.01c6.43-8.21,16.47-13.44,27.77-13.36,19.57.13,35.53,16.1,35.66,35.66Z"/>
  </g>
</svg>
