<?xml version="1.0" encoding="UTF-8"?>
<svg id="Capa_2" data-name="Capa 2" xmlns="http://www.w3.org/2000/svg" viewBox="0 0 145.47 143.05">
  <defs>
    <style>
      .cls-1 {
        fill: #1d1d1b;
        stroke: #1d1d1b;
        stroke-miterlimit: 10;
      }
    </style>
  </defs>
  <g id="Capa_1-2" data-name="Capa 1">
    <path class="cls-1" d="m144.97,71.99c.26,39.23-31.87,70.82-71.77,70.56-2.49-.02-4.96-.16-7.39-.41,20.34-.27,39.7-12.74,48.09-33.12,11.14-27.06-1.29-57.84-27.76-68.73-26.47-10.89-56.95,2.22-68.09,29.29-8.78,21.34-2.92,44.97,12.92,59.36C12.66,115.93.66,94.82.5,71.06.24,31.83,32.38.24,72.27.5c39.9.26,72.45,32.26,72.7,71.49Z"/>
    <ellipse class="cls-1" cx="67.01" cy="88.82" rx="35.2" ry="35.66" transform="translate(-43.18 73.4) rotate(-45)"/>
  </g>
</svg>