<?xml version="1.0" encoding="UTF-8"?>
<svg id="Capa_2" data-name="Capa 2" xmlns="http://www.w3.org/2000/svg" viewBox="0 0 144.47 142.05">
  <defs>
    <style>
      .cls-1 {
        stroke: #1d1d1b;
        stroke-miterlimit: 10;
      }

      .cls-1, .cls-2 {
        fill: #1d1d1b;
      }
    </style>
  </defs>
  <g id="Capa_1-2" data-name="Capa 1">
    <path class="cls-2" d="m144.47,71.49c.26,39.23-31.87,70.82-71.77,70.56-2.49-.02-4.96-.16-7.39-.41,20.34-.27,39.7-12.74,48.09-33.12,11.14-27.06-1.29-57.84-27.76-68.73-26.47-10.89-56.95,2.22-68.09,29.29-8.78,21.34-2.92,44.97,12.92,59.36C12.16,115.43.16,94.32,0,70.56-.26,31.33,31.88-.26,71.77,0c39.9.26,72.45,32.26,72.7,71.49Z"/>
    <path class="cls-1" d="m94.85,88.51c.02,3.1-.46,6.07-1.36,8.86-3.65,11.29-14.25,19.38-26.8,19.3-15.65-.1-28.43-12.87-28.53-28.53-.04-6.61,2.18-12.67,5.94-17.47h0c5.14-6.57,13.17-10.75,22.21-10.69,15.65.1,28.42,12.88,28.53,28.53Z"/>
    <path class="cls-1" d="m98.62,100.27c1.13-3.48,1.73-7.2,1.7-11.07-.13-19.56-16.09-35.53-35.66-35.66-11.3-.08-21.34,5.15-27.77,13.35,4.56-14.11,17.8-24.22,33.5-24.12,19.57.12,35.53,16.09,35.66,35.66.05,8.26-2.73,15.85-7.43,21.84Z"/>
  </g>
</svg>